<svg xmlns="http://www.w3.org/2000/svg" viewBox="0 0 80 80">
    <g>
        <ellipse stroke="#000" ry="36.822" rx="36.075" cy="39.337" cx="39.533" stroke-width="1.5" fill="#fff"/>
        <path d="M35.793 1.44C23.128 2.866 12.136 10.221 5.979 21.378 2.983 26.792 1.537 32.102 1.33 38.507c-.165 5.433.351 9.173 1.922 13.905C7.28 64.416 17.446 74.064 29.615 77.35c6.323 1.714 13.905 1.797 20 .186 17.769-4.65 29.814-20.827 29.05-39.03-.29-7.313-2.356-13.822-6.26-19.751C66.35 9.58 57.053 3.569 46.103 1.709c-2.21-.372-8.037-.537-10.31-.269zm23.616 14.34c2.789.578 4.277 1.941 4.421 4.028.062.95 0 1.426-.351 2.149-.558 1.116-1.178 1.55-2.459 1.694-2.52.269-3.987-2.066-2.768-4.36.248-.454.454-.97.454-1.177 0-1.033-2.273-1.322-4.05-.496-2.004.93-3.45 2.955-4.648 6.467-.6 1.798-2.252 9.339-2.252 10.33v.517l2.438-.082c2.045-.062 2.603-.166 3.595-.62 1.611-.744 1.777-1.137 1.116-2.542-.641-1.343-.662-1.652-.124-2.54.413-.683 1.466-1.282 2.252-1.282 1.28 0 2.376 1.322 2.376 2.872-.021 2.417-2.335 4.545-5.971 5.496-.765.186-2.129.31-3.657.31-2.356 0-2.438.02-2.542.454-.041.269-.248 1.302-.413 2.335-1.756 9.98-3.492 15.145-6.632 19.773-3.058 4.483-6.447 7.252-10.372 8.43-2.128.64-5.041.537-6.57-.248-2.624-1.364-3.533-4.236-2.025-6.405.744-1.054 2.48-1.922 3.595-1.757 2.273.29 3.74 2.666 2.79 4.484-.166.33-.58.764-.93.971-.848.496-1.013 1.074-.414 1.55.579.475 1.508.35 2.975-.414 2.955-1.467 5.228-5.64 6.84-12.479.474-2.087.97-4.566 1.983-9.98.248-1.26.805-3.801 1.26-5.681.455-1.88.847-3.513.868-3.616.041-.392-4.442-4.194-5.744-4.855-3.264-1.632-6.116-1.199-7.17 1.115-.785 1.736-.371 2.893 1.984 5.496 3.058 3.368 4.029 5.228 4.029 7.604-.02 4.462-4.05 7.892-9.277 7.892-5.248 0-9.587-2.934-9.876-6.694-.207-2.562 1.074-4.07 3.203-3.74.723.104 1.136.33 1.632.847 1.115 1.199 1.157 2.748.103 4.629l-.558 1.012.434.578c.227.31.868.806 1.405 1.075 2.83 1.425 6.322-.33 6.322-3.161 0-1.281-.289-1.757-2.314-3.947-.847-.909-1.818-2.086-2.19-2.603-3.12-4.607-1.694-9.897 3.327-12.293 3.182-1.509 6.735-1.26 10.165.723.578.33 1.942 1.405 3.058 2.397 1.116.991 2.107 1.735 2.19 1.632.103-.104.372-.744.64-1.426 1.736-4.773 4.96-9.566 7.893-11.777 2.314-1.756 5.372-2.934 7.707-2.975.454 0 1.467.124 2.252.29z"/>
    </g>
</svg>