<svg xmlns="http://www.w3.org/2000/svg" viewBox="0 0 585 600">
    <path fill="none" d="M-1-1h587v602H-1z"/>
    <g>
        <circle stroke="#000" cy="291" cx="290.5" stroke-width="1.5" r="289"/>
        <path fill-rule="evenodd" fill="#fff"
              d="M168.75 242.3c16.23-64.93 56.82-97.4 121.75-97.4 97.4 0 109.575 73.05 158.275 85.225 32.47 8.12 60.875-4.056 85.225-36.525-16.23 64.93-56.82 97.4-121.75 97.4-97.4 0-109.575-73.05-158.275-85.225-32.47-8.12-60.875 4.056-85.225 36.525zM47 388.4c16.23-64.93 56.82-97.4 121.75-97.4 97.4 0 109.575 73.05 158.275 85.225 32.47 8.12 60.875-4.056 85.225-36.525-16.23 64.93-56.82 97.4-121.75 97.4-97.4 0-109.575-73.05-158.275-85.225-32.47-8.12-60.875 4.056-85.225 36.525z"
              stroke="null"/>
    </g>
</svg>