<svg height="512pt" viewBox="0 0 512 512" width="512pt" xmlns="http://www.w3.org/2000/svg">
    <path d="M65.14 31.3A23.76 23.76 0 0041.4 55.05c0 13.09 10.65 23.73 23.74 23.73s23.73-10.65 23.73-23.73A23.76 23.76 0 0065.14 31.3zm0 32.32a8.6 8.6 0 010-17.17 8.6 8.6 0 010 17.17zm63.62-32.31a23.76 23.76 0 00-23.74 23.73c0 13.09 10.65 23.73 23.74 23.73s23.73-10.64 23.73-23.73-10.65-23.73-23.73-23.73zm0 32.31a8.6 8.6 0 010-17.17 8.6 8.6 0 010 17.17zm63.62-32.31a23.76 23.76 0 00-23.73 23.73c0 13.09 10.64 23.73 23.73 23.73s23.73-10.64 23.73-23.73-10.65-23.73-23.73-23.73zm0 32.31a8.6 8.6 0 11.02-17.18 8.6 8.6 0 01-.02 17.18zm0 0"/>
    <path d="M484.23 0H27.77A27.8 27.8 0 000 27.77v334.26a27.8 27.8 0 0027.77 27.77h48.86a7.57 7.57 0 00.62 10.01l36.39 36.4a155.27 155.27 0 00-7.15 17.22H55.04a7.57 7.57 0 00-7.58 7.57v43.43a7.57 7.57 0 007.57 7.57H204.5a7.57 7.57 0 007.57-7.57 41.96 41.96 0 0141.91-41.91c23.1 0 41.9 18.8 41.9 41.9a7.57 7.57 0 007.58 7.58h149.46a7.57 7.57 0 007.57-7.57V461a7.57 7.57 0 00-7.57-7.57h-51.46a155.27 155.27 0 00-7.14-17.23l36.4-36.39a7.58 7.58 0 00.6-10h52.9A27.8 27.8 0 00512 362.04V174.66a7.57 7.57 0 10-15.15 0v187.38c0 6.96-5.66 12.62-12.62 12.62h-67.96l-44.64-44.64v-51.8a7.58 7.58 0 00-7.58-7.58h-13.63v-46.67l10.69-9.87a7.57 7.57 0 002.1-7.81l-18.18-58.57a7.58 7.58 0 00-7.23-5.33h-20.2a7.58 7.58 0 00-7.24 5.33l-18.17 58.57a7.57 7.57 0 002.1 7.81l10.69 9.87v46.67h-13.64a7.57 7.57 0 00-7.57 7.58v19.69h-59.58v-11.5l29.08-29.1a7.57 7.57 0 002.22-5.35v-62.1a7.57 7.57 0 00-2.25-5.4l-40.4-39.89a7.58 7.58 0 00-12.9 5.4v67.51l-19.68 12.4-19.7-12.4v-4.32a7.57 7.57 0 00-7.57-7.57 7.57 7.57 0 00-7.57 7.57v8.5a7.57 7.57 0 003.54 6.41l27.26 17.17a7.57 7.57 0 008.07 0l27.27-17.17a7.57 7.57 0 003.54-6.41v-53.57l25.24 24.93v55.8l-29.08 29.09a7.57 7.57 0 00-2.22 5.36v14.79a7.58 7.58 0 00-6.06 7.42v51.46a155.3 155.3 0 00-17.23 7.14l-34.27-34.28v-46.53a7.57 7.57 0 00-2.22-5.36l-29.09-29.09v-55.8l25.25-24.93v9.6a7.57 7.57 0 007.57 7.58 7.57 7.57 0 007.58-7.58v-27.72a7.57 7.57 0 00-4.66-7 7.58 7.58 0 00-8.24 1.6l-40.4 39.9a7.57 7.57 0 00-2.25 5.38v62.11c0 2 .8 3.94 2.22 5.36l29.09 29.08v43.62l-44.64 44.64H27.77a12.63 12.63 0 01-12.62-12.62V110.07h481.7v29.3a7.57 7.57 0 007.58 7.58 7.57 7.57 0 007.57-7.57V27.77A27.8 27.8 0 00484.23 0zM317.69 215.09l-9.62-8.88 15.11-48.67h9.04l15.1 48.67-9.6 8.88a7.58 7.58 0 00-2.45 5.57v49.98h-15.14v-49.98a7.58 7.58 0 00-2.44-5.57zm38.79 70.7v44.02l-34.28 34.27a156.09 156.09 0 00-17.22-7.14v-51.46a7.58 7.58 0 00-6.06-7.42V285.8h57.56zm-168.63 94.22a140.28 140.28 0 0124.92-10.33 7.58 7.58 0 005.36-7.25v-49.38h71.7v49.38a7.58 7.58 0 005.36 7.25 140.28 140.28 0 0124.92 10.33 7.58 7.58 0 008.91-1.33l34.93-34.92 43.82 43.83h.01l6.87 6.87-34.93 34.92a7.58 7.58 0 00-1.33 8.92 140.04 140.04 0 0110.34 24.91 7.58 7.58 0 007.24 5.36h49.38v28.28h-77c-3.92-59.68-53.71-107.04-114.37-107.04-16.22 0-31.9 3.32-46.6 9.87a7.58 7.58 0 00-3.83 10 7.58 7.58 0 0010 3.84 98.7 98.7 0 0140.43-8.56c52.3 0 95.3 40.57 99.18 91.9h-42.63c-3.71-27.9-27.66-49.49-56.55-49.49s-52.84 21.6-56.55 49.48h-42.64a98.4 98.4 0 0131.16-65 7.57 7.57 0 00-10.36-11.05 115.11 115.11 0 00-35.97 76.05H62.61v-28.28h49.38a7.58 7.58 0 007.24-5.36 140.04 140.04 0 0110.34-24.9 7.58 7.58 0 00-1.33-8.93L93.3 394.46l6.87-6.87 43.83-43.83 34.93 34.92a7.58 7.58 0 008.92 1.33zM15.16 94.93V27.77c0-6.96 5.66-12.62 12.62-12.62h456.46c6.96 0 12.62 5.66 12.62 12.62v67.16zm0 0"/>
</svg>