<?xml version="1.0" standalone="no"?>
<!DOCTYPE svg PUBLIC "-//W3C//DTD SVG 20010904//EN"
 "http://www.w3.org/TR/2001/REC-SVG-20010904/DTD/svg10.dtd">
<svg version="1.0" xmlns="http://www.w3.org/2000/svg"
 width="700.000000pt" height="700.000000pt" viewBox="0 0 700.000000 700.000000"
 preserveAspectRatio="xMidYMid meet">
<metadata>
Created by potrace 1.11, written by Peter Selinger 2001-2013
</metadata>
<g transform="translate(0.000000,700.000000) scale(0.100000,-0.100000)"
fill="#000000" stroke="none">
<path d="M279 6890 c-90 -15 -171 -79 -213 -169 l-21 -46 0 -3165 0 -3165 28
-57 c31 -62 76 -105 147 -140 l45 -22 3255 0 c3173 -1 3256 0 3304 18 62 24
131 87 157 142 19 42 19 95 19 3224 0 2707 -2 3186 -14 3214 -31 74 -114 142
-196 162 -39 9 -6455 13 -6511 4z m3393 -1239 c4 -192 -1 -4202 -5 -4368 l-2
-103 -40 -1 c-22 0 -85 1 -140 1 -55 1 -156 3 -225 4 l-125 2 -2 264 c-1 146
-2 268 -2 271 -1 3 -8 6 -17 6 -8 0 -36 -28 -61 -61 -60 -79 -183 -202 -253
-252 -139 -100 -306 -176 -439 -201 -14 -2 -27 -6 -31 -8 -24 -15 -341 -24
-446 -13 -259 28 -498 148 -687 342 -221 228 -371 595 -404 984 -8 103 -8 330
0 422 56 607 320 1091 743 1362 113 72 311 154 431 178 26 5 59 12 73 15 45 9
173 18 260 19 179 0 297 -23 460 -91 73 -31 224 -124 255 -157 6 -6 22 -22 38
-35 l27 -25 0 540 c-1 514 -2 541 -20 571 -30 49 -30 49 -355 173 -60 23 -129
48 -152 57 -24 8 -43 18 -44 21 -4 26 -3 202 1 203 14 3 77 7 200 13 192 9
355 17 430 21 36 1 151 6 255 10 105 4 191 8 192 9 1 1 20 2 42 3 l40 1 3
-177z m1833 -1156 c155 -17 316 -70 500 -166 l110 -58 -1 -183 c-1 -101 -3
-236 -5 -300 l-2 -118 -26 -1 c-92 -3 -107 2 -202 76 -31 23 -51 38 -168 123
-106 77 -300 174 -403 202 -47 13 -120 23 -185 25 -100 4 -115 2 -198 -26
-113 -38 -167 -69 -230 -133 -190 -192 -276 -504 -277 -1003 0 -214 20 -422
54 -548 5 -22 11 -47 13 -56 8 -41 61 -181 93 -244 97 -194 242 -336 413 -404
125 -50 325 -70 464 -47 138 23 386 146 512 253 156 133 171 143 210 143 l39
0 -1 -170 c0 -93 -3 -171 -5 -173 -206 -189 -384 -318 -533 -386 -96 -45 -246
-97 -304 -106 -21 -3 -62 -9 -91 -14 -57 -9 -246 -7 -327 4 -270 34 -531 184
-720 411 -198 237 -312 543 -360 969 -6 50 -7 383 -1 410 2 11 7 47 11 80 15
136 55 291 115 445 93 236 200 401 380 580 113 114 129 127 243 203 264 177
557 247 882 212z"/>
<path d="M2297 4134 c-1 -1 -24 -4 -52 -8 -81 -10 -106 -16 -192 -45 -247 -85
-439 -286 -547 -573 -27 -71 -52 -161 -62 -222 -3 -21 -8 -48 -10 -60 -19 -94
-25 -381 -11 -536 49 -539 277 -903 642 -1025 97 -33 156 -40 315 -39 173 1
281 27 445 108 110 54 154 88 223 169 l32 39 0 1022 c0 1015 0 1021 -20 1034
-83 51 -277 102 -490 128 -44 6 -268 12 -273 8z"/>
</g>
</svg>
